<svg width="24" height="24" viewBox="0 0 24 24" fill="none" xmlns="http://www.w3.org/2000/svg">
<path d="M16.145 2.402C16.145 3.426 15.705 4.45 15.083 5.188C14.423 6.006 13.281 6.614 12.373 6.614C12.269 6.614 12.165 6.6 12.101 6.588C12.0774 6.46874 12.0646 6.34757 12.063 6.226C12.063 5.188 12.595 4.164 13.165 3.516C13.891 2.674 15.095 2.038 16.107 2C16.133 2.116 16.145 2.26 16.145 2.402ZM19.714 8.852L19.764 8.819C18.415 6.886 16.367 6.834 15.797 6.834C14.925 6.834 14.144 7.144 13.488 7.404C13.013 7.592 12.603 7.754 12.271 7.754C11.904 7.754 11.484 7.584 11.015 7.396C10.423 7.156 9.755 6.886 9.017 6.886C6.528 6.886 4 8.95 4 12.837C4 15.261 4.934 17.816 6.09 19.46C7.088 20.86 7.956 22 9.2 22C9.79 22 10.223 21.817 10.678 21.624C11.182 21.41 11.714 21.184 12.518 21.184C13.332 21.184 13.818 21.396 14.286 21.6C14.723 21.79 15.143 21.974 15.799 21.974C17.159 21.974 18.053 20.744 18.909 19.512C19.869 18.112 20.272 16.738 20.284 16.674C20.206 16.648 17.599 15.597 17.599 12.629C17.599 10.239 19.376 9.074 19.714 8.852Z" fill="black"/>
</svg>
